<svg width="100" height="18" viewBox="0 0 100 18" fill="none" xmlns="http://www.w3.org/2000/svg">
<path d="M17.3267 0H10.7046V17.5791H17.3267V0Z" fill="black"/>
<path d="M6.64662 0H0V17.5791H6.64662V0Z" fill="black"/>
<path d="M29.5484 11.0168V12.5898H36.6158V17.5824H22.9507V0H36.2439V4.99262H29.5484V6.49258" fill="black"/>
<path d="M41.4966 0H48.8898L52.7437 8.58988V0H58.6199V17.5824H52.3131L47.3931 7.99319V17.5824H41.4966V0Z" fill="black"/>
<path d="M77.239 10.5754C78.8335 9.71493 79.8527 8.33668 79.8527 6.02819V5.93609C79.8527 2.12436 77.3997 0.000732422 72.0883 0.000732422H64.2715V17.5825H70.8692V11.9997H71.2404L74.0051 17.5825H80.9006L77.239 10.5754Z" fill="black"/>
<path d="M93.6521 0L93.4836 0.471697C93.4766 0.483539 93.471 0.495381 93.4661 0.50788L93.097 1.54732L91.4514 6.1268L89.4542 0.471697L89.2962 0H82.1274L87.8667 10.13V17.5791H94.5238V10.1069L100 0H93.6514H93.6521Z" fill="black"/>
<path d="M69.6042 6.08069C64.2187 6.44318 58.6053 6.90172 52.8486 7.45894C42.0636 8.50102 31.3184 9.86414 20.613 11.5476C13.6966 12.6456 6.8046 13.9318 0 15.5706V10.0076C5.28416 9.30823 11.1038 8.64904 17.3268 8.05893C24.685 7.3596 32.5935 6.73989 40.8451 6.27477C51.0345 5.68465 60.7472 5.34848 69.549 5.24585V5.71426C69.549 5.83596 69.57 5.94517 69.5875 6.04385C69.5903 6.05701 69.5966 6.06951 69.6049 6.08004L69.6042 6.08069Z" fill="#FFFF00"/>
<path d="M74.4081 5.60563C74.3927 5.66616 74.3703 5.72471 74.3417 5.78063C74.2599 5.91878 74.1383 6.03325 73.9914 6.11022C73.205 6.51942 72.3284 6.75165 71.4301 6.78981H71.2162C71.1582 6.96678 71.0736 7.13454 70.9638 7.28782C70.5115 7.87136 69.7412 7.37005 69.7412 7.37005C69.7412 7.37005 69.8957 7.3865 70.1508 7.13256C70.2781 7.00427 70.362 6.84375 70.3927 6.67073C70.1348 6.52139 69.974 6.26022 69.9649 5.9747V5.94181C69.9628 5.92668 69.9628 5.91089 69.9649 5.89575C69.9649 5.81023 69.9404 5.71418 69.9334 5.61221C69.925 5.46287 69.925 5.31288 69.9334 5.16354C69.9369 5.10038 69.9439 5.03789 69.9544 4.97539C69.9768 4.79184 70.0795 4.6254 70.2382 4.51685C70.1781 4.36159 70.0739 4.22475 69.9369 4.12146C69.6461 3.907 69.4951 3.99318 69.4951 3.93989C69.4951 3.93989 70.1956 3.3432 70.7143 3.86095C70.8387 3.98857 70.9436 4.13133 71.0261 4.28659L71.2539 4.26356C72.1473 4.18133 73.0491 4.29383 73.8887 4.59316C74.1229 4.67737 74.3067 4.85302 74.3934 5.07472C74.4242 5.15104 74.443 5.23064 74.4493 5.31222C74.4535 5.41156 74.4388 5.5109 74.4074 5.60563H74.4081Z" fill="white"/>
</svg>
